<svg width="34" height="34" viewBox="0 0 34 34" fill="none" xmlns="http://www.w3.org/2000/svg">
<path d="M22.5494 21.5212C22.4005 21.5133 22.2609 21.4466 22.1611 21.3359C22.0614 21.2251 22.0097 21.0793 22.0174 20.9304L22.4452 12.7539L11.1929 22.8857C11.082 22.9855 10.9361 23.0372 10.7871 23.0294C10.6381 23.0216 10.4983 22.9549 10.3985 22.8441C10.2987 22.7332 10.247 22.5872 10.2548 22.4383C10.2626 22.2893 10.3293 22.1495 10.4401 22.0497L21.6924 11.9179L13.516 11.4888C13.3709 11.476 13.2363 11.4074 13.1407 11.2974C13.0451 11.1874 12.9959 11.0446 13.0035 10.899C13.0112 10.7535 13.075 10.6166 13.1816 10.5171C13.2881 10.4177 13.4292 10.3636 13.5749 10.366L23.1077 10.8656C23.2566 10.8735 23.3962 10.9401 23.496 11.0509C23.5957 11.1617 23.6474 11.3075 23.6397 11.4564L23.1402 20.9892C23.1323 21.1381 23.0656 21.2777 22.9549 21.3775C22.8441 21.4772 22.6982 21.5289 22.5494 21.5212Z" fill="#B4B4B4"/>
</svg>
