<svg width="14" height="14" viewBox="0 0 14 14" fill="none" xmlns="http://www.w3.org/2000/svg">
<path d="M4.9916 7.87499H2.73119C2.4317 7.87669 2.14506 7.99685 1.93389 8.20922C1.72271 8.42159 1.60418 8.70891 1.60419 9.00841V11.2688C1.60419 11.5677 1.72292 11.8544 1.93428 12.0657C2.14563 12.2771 2.43229 12.3958 2.73119 12.3958H4.9916C5.29104 12.3958 5.5783 12.2773 5.79058 12.0661C6.00286 11.8549 6.12289 11.5683 6.12444 11.2688V9.00841C6.12444 8.70796 6.00509 8.41982 5.79264 8.20737C5.58019 7.99492 5.29205 7.87557 4.9916 7.87557M4.9916 1.60416H2.73119C2.58319 1.60416 2.43664 1.63331 2.2999 1.68994C2.16317 1.74658 2.03893 1.8296 1.93428 1.93425C1.82963 2.0389 1.74661 2.16314 1.68997 2.29987C1.63334 2.43661 1.60419 2.58316 1.60419 2.73116V4.99157C1.60418 5.29101 1.72273 5.57827 1.93392 5.79055C2.14511 6.00283 2.43175 6.12286 2.73119 6.12441H4.9916C5.29205 6.12441 5.58019 6.00505 5.79264 5.79261C6.00509 5.58016 6.12444 5.29202 6.12444 4.99157V2.73116C6.12289 2.43172 6.00286 2.14508 5.79058 1.93389C5.5783 1.7227 5.29104 1.60415 4.9916 1.60416ZM11.2689 1.60416H9.00844C8.709 1.60415 8.42174 1.7227 8.20946 1.93389C7.99718 2.14508 7.87715 2.43172 7.8756 2.73116V4.99157C7.87576 5.29197 7.99516 5.58002 8.20757 5.79244C8.41999 6.00485 8.70804 6.12425 9.00844 6.12441H11.2689C11.5683 6.12286 11.8549 6.00283 12.0661 5.79055C12.2773 5.57827 12.3959 5.29101 12.3959 4.99157V2.73116C12.3959 2.43226 12.2771 2.1456 12.0658 1.93425C11.8544 1.72289 11.5678 1.60416 11.2689 1.60416ZM10.1354 7.87499C9.53594 7.87499 8.96099 8.11314 8.53708 8.53705C8.11317 8.96096 7.87502 9.53591 7.87502 10.1354C7.87502 10.7349 8.11317 11.3099 8.53708 11.7338C8.96099 12.1577 9.53594 12.3958 10.1354 12.3958C10.7349 12.3958 11.3099 12.1577 11.7338 11.7338C12.1577 11.3099 12.3959 10.7349 12.3959 10.1354C12.3959 9.53591 12.1577 8.96096 11.7338 8.53705C11.3099 8.11314 10.7349 7.87499 10.1354 7.87499Z" stroke="#B4B4B4" stroke-linecap="round" stroke-linejoin="round"/>
</svg>
