<svg width="24" height="24" viewBox="0 0 24 24" fill="none" xmlns="http://www.w3.org/2000/svg">
<path d="M15 20.4C15.1591 20.4 15.3117 20.3368 15.4243 20.2243C15.5368 20.1117 15.6 19.9591 15.6 19.8C15.6 19.6409 15.5368 19.4883 15.4243 19.3757C15.3117 19.2632 15.1591 19.2 15 19.2H7.20001C6.56349 19.2 5.95304 18.9471 5.50295 18.4971C5.05286 18.047 4.80001 17.4365 4.80001 16.8V7.20001C4.80001 6.56349 5.05286 5.95304 5.50295 5.50295C5.95304 5.05286 6.56349 4.80001 7.20001 4.80001H15C15.1591 4.80001 15.3117 4.73679 15.4243 4.62427C15.5368 4.51175 15.6 4.35914 15.6 4.20001C15.6 4.04088 15.5368 3.88826 15.4243 3.77574C15.3117 3.66322 15.1591 3.60001 15 3.60001H7.20001C6.24523 3.60001 5.32955 3.97929 4.65442 4.65442C3.97929 5.32955 3.60001 6.24523 3.60001 7.20001V16.8C3.60001 17.7548 3.97929 18.6705 4.65442 19.3456C5.32955 20.0207 6.24523 20.4 7.20001 20.4H15ZM16.3752 7.37521C16.4309 7.31933 16.4972 7.275 16.57 7.24475C16.6429 7.2145 16.7211 7.19893 16.8 7.19893C16.8789 7.19893 16.9571 7.2145 17.03 7.24475C17.1029 7.275 17.1691 7.31933 17.2248 7.37521L21.4248 11.5752C21.4807 11.6309 21.525 11.6972 21.5553 11.77C21.5855 11.8429 21.6011 11.9211 21.6011 12C21.6011 12.0789 21.5855 12.1571 21.5553 12.23C21.525 12.3029 21.4807 12.3691 21.4248 12.4248L17.2248 16.6248C17.169 16.6806 17.1028 16.7248 17.0299 16.755C16.957 16.7852 16.8789 16.8008 16.8 16.8008C16.7211 16.8008 16.643 16.7852 16.5701 16.755C16.4972 16.7248 16.431 16.6806 16.3752 16.6248C16.3194 16.569 16.2752 16.5028 16.245 16.4299C16.2148 16.357 16.1992 16.2789 16.1992 16.2C16.1992 16.1211 16.2148 16.043 16.245 15.9701C16.2752 15.8972 16.3194 15.831 16.3752 15.7752L19.5516 12.6H9.00001C8.84088 12.6 8.68826 12.5368 8.57574 12.4243C8.46322 12.3117 8.40001 12.1591 8.40001 12C8.40001 11.8409 8.46322 11.6883 8.57574 11.5757C8.68826 11.4632 8.84088 11.4 9.00001 11.4H19.5516L16.3752 8.22481C16.3193 8.16907 16.275 8.10286 16.2448 8.02997C16.2145 7.95707 16.1989 7.87893 16.1989 7.80001C16.1989 7.72109 16.2145 7.64294 16.2448 7.57005C16.275 7.49715 16.3193 7.43094 16.3752 7.37521Z" fill="#78716C"/>
</svg>
