<svg width="24" height="24" viewBox="0 0 24 24" fill="none" xmlns="http://www.w3.org/2000/svg">
<g clip-path="url(#clip0_89_14)">
<path fill-rule="evenodd" clip-rule="evenodd" d="M12 4.5C7.86075 4.5 4.5 7.86075 4.5 12C4.5 16.1393 7.86075 19.5 12 19.5C16.1393 19.5 19.5 16.1393 19.5 12C19.5 7.86075 16.1393 4.5 12 4.5ZM12 6C15.3112 6 18 8.68875 18 12C18 15.3112 15.3112 18 12 18C8.68875 18 6 15.3112 6 12C6 8.68875 8.68875 6 12 6Z" fill="#B4B4B4"/>
<path fill-rule="evenodd" clip-rule="evenodd" d="M12 4.5C7.86075 4.5 4.5 7.86075 4.5 12C4.5 16.1393 7.86075 19.5 12 19.5C16.1393 19.5 19.5 16.1393 19.5 12C19.5 7.86075 16.1393 4.5 12 4.5ZM12 6C15.3112 6 18 8.68875 18 12C18 15.3112 15.3112 18 12 18C8.68875 18 6 15.3112 6 12C6 8.68875 8.68875 6 12 6Z" fill="#B4B4B4"/>
<path fill-rule="evenodd" clip-rule="evenodd" d="M11.25 21V23.25C11.25 23.664 11.586 24 12 24C12.414 24 12.75 23.664 12.75 23.25V21C12.75 20.586 12.414 20.25 12 20.25C11.586 20.25 11.25 20.586 11.25 21ZM15.8505 20.169L16.9755 22.1175C17.1825 22.476 17.6415 22.599 18 22.392C18.3585 22.185 18.4815 21.726 18.2745 21.3675L17.1495 19.419C16.9425 19.0605 16.4835 18.9375 16.125 19.1445C15.7665 19.3515 15.6435 19.8105 15.8505 20.169ZM6.8505 19.419L5.7255 21.3675C5.5185 21.726 5.6415 22.185 6 22.392C6.3585 22.599 6.8175 22.476 7.0245 22.1175L8.1495 20.169C8.3565 19.8105 8.2335 19.3515 7.875 19.1445C7.5165 18.9375 7.0575 19.0605 6.8505 19.419ZM3.831 15.8505L1.8825 16.9755C1.524 17.1825 1.401 17.6415 1.608 18C1.815 18.3585 2.274 18.4815 2.6325 18.2745L4.581 17.1495C4.9395 16.9425 5.0625 16.4835 4.8555 16.125C4.6485 15.7665 4.1895 15.6435 3.831 15.8505ZM19.419 17.1495L21.3675 18.2745C21.726 18.4815 22.185 18.3585 22.392 18C22.599 17.6415 22.476 17.1825 22.1175 16.9755L20.169 15.8505C19.8105 15.6435 19.3515 15.7665 19.1445 16.125C18.9375 16.4835 19.0605 16.9425 19.419 17.1495ZM3 11.25H0.75C0.336 11.25 0 11.586 0 12C0 12.414 0.336 12.75 0.75 12.75H3C3.414 12.75 3.75 12.414 3.75 12C3.75 11.586 3.414 11.25 3 11.25ZM21 12.75H23.25C23.664 12.75 24 12.414 24 12C24 11.586 23.664 11.25 23.25 11.25H21C20.586 11.25 20.25 11.586 20.25 12C20.25 12.414 20.586 12.75 21 12.75ZM20.169 8.1495L22.1175 7.0245C22.476 6.8175 22.599 6.3585 22.392 6C22.185 5.6415 21.726 5.5185 21.3675 5.7255L19.419 6.8505C19.0605 7.0575 18.9375 7.5165 19.1445 7.875C19.3515 8.2335 19.8105 8.3565 20.169 8.1495ZM4.581 6.8505L2.6325 5.7255C2.274 5.5185 1.815 5.6415 1.608 6C1.401 6.3585 1.524 6.8175 1.8825 7.0245L3.831 8.1495C4.1895 8.3565 4.6485 8.2335 4.8555 7.875C5.0625 7.5165 4.9395 7.0575 4.581 6.8505ZM8.1495 3.831L7.0245 1.8825C6.8175 1.524 6.3585 1.401 6 1.608C5.6415 1.815 5.5185 2.274 5.7255 2.6325L6.8505 4.581C7.0575 4.9395 7.5165 5.0625 7.875 4.8555C8.2335 4.6485 8.3565 4.1895 8.1495 3.831ZM17.1495 4.581L18.2745 2.6325C18.4815 2.274 18.3585 1.815 18 1.608C17.6415 1.401 17.1825 1.524 16.9755 1.8825L15.8505 3.831C15.6435 4.1895 15.7665 4.6485 16.125 4.8555C16.4835 5.0625 16.9425 4.9395 17.1495 4.581ZM12.75 3V0.75C12.75 0.336 12.414 0 12 0C11.586 0 11.25 0.336 11.25 0.75V3C11.25 3.414 11.586 3.75 12 3.75C12.414 3.75 12.75 3.414 12.75 3Z" fill="#B4B4B4"/>
<path d="M12 18C15.3137 18 18 15.3137 18 12C18 8.68629 15.3137 6 12 6C8.68629 6 6 8.68629 6 12C6 15.3137 8.68629 18 12 18Z" fill="#B4B4B4"/>
</g>
<defs>
<clipPath id="clip0_89_14">
<rect width="24" height="24" fill="white"/>
</clipPath>
</defs>
</svg>
